# xmcd CD database file
#
# Track frame offsets:
#	150
#	20285
#	39215
#	68440
#	99782
#
# Disc length: 4440 seconds
#
# Revision: 0
# Processed by: cddbd v1.5.1PL0 Copyright (c) Steve Scherf et al.
# Submitted via: CDex 1.51
#
DISCID=27115605
DTITLE=Heartsdales - LOVE and JOY
DYEAR=2004
DGENRE=JPop
TTITLE0=LOVE and JOY
TTITLE1=LOVE and JOY 〜English ver.〜
TTITLE2=LOVE and JOY 〜sonicballoon summer of love remix〜
TTITLE3=LOVE and JOY 〜inst〜
TTITLE4=糞
EXTD=YEAR: 2004
EXTT0=
EXTT1=
EXTT2=
EXTT3=
EXTT4=
PLAYORDER=
